<svg id="Ebene_1" data-name="Ebene 1" xmlns="http://www.w3.org/2000/svg" viewBox="0 0 141.73 153.09"><defs><style>.cls-1{fill:#64b32c;}.cls-2{fill:#1a1a18;}</style></defs><title>compo-expert-logo</title><path class="cls-1" d="M80.43,75.47s-16.69,9.2-16.69,26.32V138.3L128,102.2s16.69-9.2,16.69-26.32V39.37Z" transform="translate(-40.19 -39.37)"/><path class="cls-2" d="M178.19,185a3.73,3.73,0,1,1-3.73,3.73,3.58,3.58,0,0,1,3.73-3.73m0,6.73a3,3,0,1,0-3-3,2.87,2.87,0,0,0,3,3m-1.3-5h1.44a1.29,1.29,0,0,1,1.4,1.28,1.21,1.21,0,0,1-.8,1.18l.94,1.6H179l-.85-1.48h-.46v1.48h-.79Zm.79,1.92h.52a.64.64,0,0,0,.7-.64.65.65,0,0,0-.7-.64h-.52Z" transform="translate(-40.19 -39.37)"/><polygon class="cls-2" points="22.34 132.64 22.34 153.09 35.48 153.09 35.48 149.05 27.31 149.05 27.31 144.65 34.09 144.65 34.09 140.76 27.31 140.76 27.31 136.68 35.25 136.68 35.25 132.64 22.34 132.64"/><polygon class="cls-2" points="52.32 132.64 48.15 139.18 43.99 132.64 38.34 132.64 45.18 142.69 38.04 153.09 43.81 153.09 48.15 146.2 52.49 153.09 58.23 153.09 51.1 142.69 57.97 132.64 52.32 132.64"/><path class="cls-2" d="M111.55,178.76a2.82,2.82,0,0,1-3,2.79h-2.38v-5.62h2.38a2.81,2.81,0,0,1,3,2.83m4.93,0c0-4-3-6.75-7.31-6.75h-7.88v20.45h4.84v-7h3c4.28,0,7.31-2.73,7.31-6.68" transform="translate(-40.19 -39.37)"/><polygon class="cls-2" points="79.36 132.64 79.36 153.09 92.5 153.09 92.5 149.05 84.33 149.05 84.33 144.65 91.11 144.65 91.11 140.76 84.33 140.76 84.33 136.68 92.27 136.68 92.27 132.64 79.36 132.64"/><path class="cls-2" d="M147,178.64a2.73,2.73,0,0,1-2.91,2.7h-2.27v-5.41h2.27a2.7,2.7,0,0,1,2.91,2.71m5,0c0-3.9-3-6.63-7.22-6.63H137v20.45h4.84v-7.22h1.67l4,7.22h5.29l-4.55-7.91a6.36,6.36,0,0,0,3.74-5.91" transform="translate(-40.19 -39.37)"/><polygon class="cls-2" points="113.75 132.64 113.75 136.68 119.67 136.68 119.67 153.09 124.6 153.09 124.6 136.68 130.49 136.68 130.49 132.64 113.75 132.64"/><path class="cls-2" d="M40.19,157.38c0,6.2,4.25,10.61,10.3,10.61a14.05,14.05,0,0,0,6.11-1.46v-4.41a9.85,9.85,0,0,1-5.21,1.7c-3.61,0-6.11-2.65-6.11-6.44s2.5-6.43,6.11-6.43a9.85,9.85,0,0,1,5.21,1.7v-4.41a14.05,14.05,0,0,0-6.11-1.46c-6.05,0-10.3,4.41-10.3,10.6" transform="translate(-40.19 -39.37)"/><path class="cls-2" d="M75.27,157.38c0,3.79-2.18,6.44-5.27,6.44s-5.28-2.65-5.28-6.44S66.87,151,70,151s5.27,2.65,5.27,6.43m5.06,0c0-6.19-4.28-10.6-10.33-10.6s-10.37,4.41-10.37,10.6S63.92,168,70,168s10.33-4.41,10.33-10.61" transform="translate(-40.19 -39.37)"/><polygon class="cls-2" points="44.32 128.27 48.96 128.27 48.96 115.63 53.23 121.5 56.12 121.5 60.44 115.63 60.44 128.27 65.02 128.27 65.02 107.77 60.74 107.77 54.69 116.05 48.61 107.77 44.32 107.77 44.32 128.27"/><path class="cls-2" d="M120.4,153.9a2.82,2.82,0,0,1-3,2.8H115v-5.63h2.38a2.81,2.81,0,0,1,3,2.83m4.95,0c0-4-3-6.76-7.33-6.76h-7.9v20.49H115v-7h3c4.29,0,7.33-2.74,7.33-6.7" transform="translate(-40.19 -39.37)"/><path class="cls-2" d="M143.52,157.38c0,3.79-2.18,6.44-5.28,6.44s-5.28-2.65-5.28-6.44,2.15-6.43,5.28-6.43,5.28,2.65,5.28,6.43m5.06,0c0-6.19-4.29-10.6-10.34-10.6s-10.37,4.41-10.37,10.6S132.16,168,138.24,168s10.34-4.41,10.34-10.61" transform="translate(-40.19 -39.37)"/></svg>