<svg xmlns="http://www.w3.org/2000/svg" width="181.515" height="73.719" viewBox="0 0 181.515 73.719">
  <g id="Group_1183" data-name="Group 1183" transform="translate(-140 -33)">
    <path id="Path_1418" data-name="Path 1418" d="M16.677,31.1a41.983,41.983,0,0,0-12.84-1.916q-1.888,0-3.7.148c0-.173-.008-.346-.008-.52a17.863,17.863,0,0,1,2.683-9.443l4.34-6.043c-1.764,9.2,4.219,14.476,9.912,14.34.534-3.144-2.15-6.41-6.724-9.917,7.087,2.832,10.776,7.759,6.341,13.351M18.074,0,24.893,7.61c-2.868,3.6-10.795,5.709-6.113,11.349-.079-3.172,3.287-7.153,5.354-8.714C19.9,15.132,17.7,19.858,21.84,24.081c-3.3-7.025,4.974-7.3,5.162-13.534l6.339,8.824a17.863,17.863,0,0,1,2.683,9.443,18.1,18.1,0,0,1-.137,2.229,76.756,76.756,0,0,0-15.325,1.617,29.276,29.276,0,0,0-3.4-1.4c5.228-4.91,3.652-11.868-1.382-13.99-5.095-2.148-6.7-3.37-7.881-4.986Z" transform="translate(139.928 32.999)" fill="#0085d3" fill-rule="evenodd"/>
    <path id="Path_1419" data-name="Path 1419" d="M.22,74.943v-.006c-.011-.059-.022-.118-.033-.178h0Q.069,74.106,0,73.437q1.631-.12,3.322-.121a40.079,40.079,0,0,1,14.9,2.705,53.035,53.035,0,0,0-5.285,1.624A37.832,37.832,0,0,0,.22,74.943m.744,2.737A17.989,17.989,0,0,1,.37,75.665,35.416,35.416,0,0,1,11.18,78.338a34.988,34.988,0,0,0-4.015,1.973,29.045,29.045,0,0,0-6.129-2.439q-.036-.1-.071-.193m.5,1.236a29.723,29.723,0,0,1,4.7,2q-.636.4-1.218.826-.661.417-1.286.853a18.034,18.034,0,0,1-2.2-3.683" transform="translate(140 -9.833)" fill="#00973d" fill-rule="evenodd"/>
    <path id="Path_1420" data-name="Path 1420" d="M11.779,86.312c6.815-5.455,18.056-9.037,30.794-9.1q-.152.806-.373,1.586h0c-.017.061-.035.122-.053.183v.051c-11.533.718-21.394,4.622-26.839,10.142a18.134,18.134,0,0,1-3.513-2.86m5.244,3.814-.052-.025c5-5.218,14.078-9.1,24.947-10.4q-.272.795-.614,1.555v0c-8.668,2.236-15.355,6-18.484,10.535a17.939,17.939,0,0,1-5.8-1.662m8.472,1.761c2.666-4.063,8.183-7.522,15.431-9.846h0a18.052,18.052,0,0,1-15.431,9.845" transform="translate(133.118 -12.107)" fill="#70b32f" fill-rule="evenodd"/>
    <path id="Path_1421" data-name="Path 1421" d="M154.164,17.325a11.113,11.113,0,0,1,2.748-7.961,11.262,11.262,0,0,1,15.078,0,11.088,11.088,0,0,1,2.754,7.961q0,5.09-2.754,7.986a11.262,11.262,0,0,1-15.078,0q-2.745-2.9-2.748-7.986m5.508.013a7.622,7.622,0,0,0,1.243,4.669,4.586,4.586,0,0,0,7.039,0,7.619,7.619,0,0,0,1.243-4.669,7.6,7.6,0,0,0-1.23-4.644,4.623,4.623,0,0,0-7.052,0,7.553,7.553,0,0,0-1.243,4.644m-25.053,10.18V7.2h5.317V9.607a7.466,7.466,0,0,1,2.691-2.214,7.951,7.951,0,0,1,3.456-.733,6.654,6.654,0,0,1,5.037,1.748,7.328,7.328,0,0,1,1.67,5.256V27.519h-5.432V15.233a5.092,5.092,0,0,0-.74-3.12,2.862,2.862,0,0,0-2.4-.938,4.055,4.055,0,0,0-3.047,1.148,4.3,4.3,0,0,0-1.122,3.132V27.519ZM126.594,7.2h5.432V27.519h-5.432Zm0-7.2h5.432V4.937h-5.432ZM106.322,27.519V0h19.2V4.784H111.907v6.238h11.935v4.784H111.907V27.519Z" transform="translate(77.885 33)" fill="#0085d3"/>
    <path id="Path_1422" data-name="Path 1422" d="M314.077,27.519V7.2h5.317V9.607a7.465,7.465,0,0,1,2.691-2.214,7.951,7.951,0,0,1,3.456-.733,6.653,6.653,0,0,1,5.036,1.748,7.326,7.326,0,0,1,1.671,5.256V27.519h-5.432V15.233a5.093,5.093,0,0,0-.739-3.12,2.863,2.863,0,0,0-2.4-.938,4.056,4.056,0,0,0-3.048,1.148,4.3,4.3,0,0,0-1.122,3.132V27.519ZM299.135,15.233h8a4.663,4.663,0,0,0-1.09-3.132,3.835,3.835,0,0,0-2.927-1.078,3.663,3.663,0,0,0-2.792,1.084,5.082,5.082,0,0,0-1.186,3.126m7.919,6.124h5.432a8.671,8.671,0,0,1-3.315,5.033,10.061,10.061,0,0,1-6.089,1.818,8.794,8.794,0,0,1-6.988-2.96,11.814,11.814,0,0,1-2.582-8.031,11.5,11.5,0,0,1,2.538-7.872A8.791,8.791,0,0,1,303,6.468,9.2,9.2,0,0,1,310.216,9.3q2.535,2.832,2.538,8.069c0,.389,0,.676-.006.874s-.025.376-.045.549H299.135A5.833,5.833,0,0,0,300.3,22.4a3.8,3.8,0,0,0,3.035,1.212,4.337,4.337,0,0,0,2.3-.548,3.754,3.754,0,0,0,1.422-1.71m-34.917,6.162V22.735l14.97-17.759h-14.67V0H293.98V4.784l-15,17.759h14.664v4.975Z" transform="translate(-18.987 33)" fill="#00973d"/>
    <path id="Path_1423" data-name="Path 1423" d="M420.835,7.885a3.757,3.757,0,1,1,3.757-3.757,3.757,3.757,0,0,1-3.757,3.757m0,.37a4.127,4.127,0,1,1,4.128-4.127,4.127,4.127,0,0,1-4.128,4.127" transform="translate(-103.708 32.999)" fill="#1a1818" fill-rule="evenodd"/>
    <path id="Path_1424" data-name="Path 1424" d="M224.531,92.632V78.93h2.039l6.409,9.955c.143.216.267.419.372.613a4.21,4.21,0,0,1,.251.54V78.93h1.772v13.7h-2.02l-6.54-10.094a4.686,4.686,0,0,1-.273-.483,5.755,5.755,0,0,1-.238-.531V92.632Zm-15.769-6.842a7.65,7.65,0,0,1,1.725-5.31,6.907,6.907,0,0,1,9.538,0,7.665,7.665,0,0,1,1.715,5.314,7.678,7.678,0,0,1-1.715,5.311,6.9,6.9,0,0,1-9.538,0,7.651,7.651,0,0,1-1.725-5.311m1.925,0a6.33,6.33,0,0,0,1.214,4.12,4.537,4.537,0,0,0,6.711,0,7.656,7.656,0,0,0,0-8.242,4.544,4.544,0,0,0-6.711,0,6.316,6.316,0,0,0-1.214,4.122m-6.847-6.861h1.868v13.7h-1.868Zm-8.543,13.7V80.588H190.97V78.93h10.52v1.658h-4.326V92.632Zm-15.721,0,5.091-13.7h2.055l5.107,13.7h-2.02l-1.452-4.1h-5.393l-1.461,4.1Zm3.964-5.7h4.272l-2.122-6.041ZM175.566,90.8a5.455,5.455,0,0,1-1.991,1.664,6,6,0,0,1-2.624.553,5.7,5.7,0,0,1-4.51-1.988,7.671,7.671,0,0,1-1.725-5.216,7.525,7.525,0,0,1,1.785-5.3,6.273,6.273,0,0,1,4.85-1.941,5.929,5.929,0,0,1,3.824,1.188,4.931,4.931,0,0,1,1.775,3.31h-1.81a3.315,3.315,0,0,0-1.242-2.14,4.08,4.08,0,0,0-2.547-.756,4.305,4.305,0,0,0-3.478,1.458,6.16,6.16,0,0,0-1.233,4.107,6.27,6.27,0,0,0,1.22,4.1,4.592,4.592,0,0,0,6.451.3,4.346,4.346,0,0,0,1.153-3.176v-.178h-4.291V85.238h6.006v7.394h-1.213ZM159.794,78.93h1.868v13.7h-1.868Zm-13.349,0h5.317a11.846,11.846,0,0,1,1.9.111,3.8,3.8,0,0,1,1.093.372,3.223,3.223,0,0,1,1.318,1.321,4.168,4.168,0,0,1,.451,1.992,3.615,3.615,0,0,1-.474,1.893,3.213,3.213,0,0,1-1.413,1.232,1.9,1.9,0,0,1,1.14.753A4.025,4.025,0,0,1,156.2,88.4l.159,2.261a3.559,3.559,0,0,0,.191,1.083.923.923,0,0,0,.432.508v.381h-2.15a4.8,4.8,0,0,1-.365-1.833v-.054l-.114-1.788a2.566,2.566,0,0,0-.584-1.785,4.554,4.554,0,0,0-2.465-.41h-3.011v5.87h-1.849Zm1.829,1.6v4.65h3.179a4.042,4.042,0,0,0,2.436-.559,2.234,2.234,0,0,0,.711-1.864,2.021,2.021,0,0,0-.67-1.725,4.383,4.383,0,0,0-2.477-.5Zm-10.335,12.1V80.588h-4.326V78.93h10.519v1.658h-4.326V92.632Zm-17.275-5.2V78.93h1.868v8.522a4.078,4.078,0,0,0,.852,2.849,4.21,4.21,0,0,0,5.272-.013,4.038,4.038,0,0,0,.87-2.836V78.93h1.868v8.506a4.981,4.981,0,0,1-5.593,5.577,4.984,4.984,0,0,1-3.853-1.395,6,6,0,0,1-1.284-4.183m-14.343,5.2V78.93h2.039l6.41,9.955c.143.216.267.419.372.613a4.209,4.209,0,0,1,.251.54V78.93h1.772v13.7h-2.02l-6.54-10.094a4.765,4.765,0,0,1-.273-.483,5.758,5.758,0,0,1-.238-.531V92.632Z" transform="translate(77.885 -12.901)" fill="#1a1818"/>
    <path id="Path_1425" data-name="Path 1425" d="M176.384,157.372h.8v1.083h-.8Zm-6.644-.888h.73a1.437,1.437,0,0,0,.5,1.064,1.753,1.753,0,0,0,1.2.407,2.17,2.17,0,0,0,1.245-.312.98.98,0,0,0,.454-.847q0-.766-1.685-1.172l-.03-.006a4.717,4.717,0,0,1-1.815-.718,1.356,1.356,0,0,1-.46-1.091,1.645,1.645,0,0,1,.6-1.32,2.36,2.36,0,0,1,1.572-.507,2.535,2.535,0,0,1,1.693.531,2.016,2.016,0,0,1,.7,1.476h-.742a1.376,1.376,0,0,0-.48-1,1.784,1.784,0,0,0-1.178-.361,1.656,1.656,0,0,0-1.032.3.945.945,0,0,0-.387.785q0,.836,1.723,1.241l.338.085a3.565,3.565,0,0,1,1.5.667,1.451,1.451,0,0,1,.424,1.113,1.57,1.57,0,0,1-.663,1.306,2.8,2.8,0,0,1-1.744.505,2.587,2.587,0,0,1-1.764-.582,2.06,2.06,0,0,1-.7-1.559m-3.469,1.971v-6.314h.708v1.107a2.06,2.06,0,0,1,.756-.951,2.146,2.146,0,0,1,1.19-.314h.083v.767h-.1a1.752,1.752,0,0,0-1.415.558,2.535,2.535,0,0,0-.472,1.669v3.479Zm-6.008-3.6,3.954.006a2.62,2.62,0,0,0-.568-1.646,1.729,1.729,0,0,0-1.378-.6,1.809,1.809,0,0,0-1.411.606,2.558,2.558,0,0,0-.6,1.632m-.012.584v.037a2.843,2.843,0,0,0,.558,1.845,1.835,1.835,0,0,0,1.5.685,1.915,1.915,0,0,0,1.241-.4,1.671,1.671,0,0,0,.606-1.1h.73a2.263,2.263,0,0,1-.832,1.539,2.754,2.754,0,0,1-1.792.578,2.491,2.491,0,0,1-2.019-.872,3.668,3.668,0,0,1-.73-2.423,3.754,3.754,0,0,1,.734-2.463,2.5,2.5,0,0,1,2.04-.884,2.442,2.442,0,0,1,1.979.846,3.588,3.588,0,0,1,.71,2.368v.241Zm-10.572,3.017v-6.314h.683v1.046a2.321,2.321,0,0,1,.833-.892,2.205,2.205,0,0,1,1.172-.312,2.036,2.036,0,0,1,1.176.323,1.549,1.549,0,0,1,.622.916A2.3,2.3,0,0,1,155,152.3a2.261,2.261,0,0,1,1.2-.316,2.07,2.07,0,0,1,1.535.513,2.134,2.134,0,0,1,.509,1.557v4.4H157.5v-4.341a1.7,1.7,0,0,0-.308-1.141,1.313,1.313,0,0,0-1.018-.345,1.794,1.794,0,0,0-1.344.517,1.859,1.859,0,0,0-.5,1.355v3.956h-.73v-4.27a1.762,1.762,0,0,0-.326-1.166,1.25,1.25,0,0,0-1-.379,1.789,1.789,0,0,0-1.344.529,1.9,1.9,0,0,0-.513,1.383v3.9Zm-3.737,0v-6.314h.707v1.107a2.065,2.065,0,0,1,.756-.951,2.149,2.149,0,0,1,1.19-.314h.083v.767h-.1a1.752,1.752,0,0,0-1.415.558,2.535,2.535,0,0,0-.472,1.669v3.479Zm-2.413-.916a3.372,3.372,0,0,1-1.081.807,2.966,2.966,0,0,1-1.253.267,2.225,2.225,0,0,1-1.525-.5,1.682,1.682,0,0,1-.568-1.33,1.713,1.713,0,0,1,.26-.943,1.766,1.766,0,0,1,.75-.637A6.122,6.122,0,0,1,142,154.85c.17-.008.3-.018.387-.027l.207-.04q.9-.186.9-.783a1.332,1.332,0,0,0-.365-1.054,1.825,1.825,0,0,0-1.2-.318,2.08,2.08,0,0,0-1.3.353,1.349,1.349,0,0,0-.487,1.048l-.718-.006a1.886,1.886,0,0,1,.7-1.49,2.768,2.768,0,0,1,1.811-.55,2.644,2.644,0,0,1,1.723.487,1.744,1.744,0,0,1,.588,1.423v3.445a.777.777,0,0,0,.1.486.506.506,0,0,0,.355.1c.057,0,.1,0,.144,0s.081-.006.124-.01v.548a2.506,2.506,0,0,1-.274.044,2.226,2.226,0,0,1-.249.016.924.924,0,0,1-.675-.221.877.877,0,0,1-.227-.655Zm-.047-2.392a3.869,3.869,0,0,1-.746.172q-.453.064-1.464.12a2.391,2.391,0,0,0-1.058.521,1.09,1.09,0,0,0-.357.815,1.068,1.068,0,0,0,.383.862,1.582,1.582,0,0,0,1.044.32,2.347,2.347,0,0,0,1.6-.519,1.778,1.778,0,0,0,.6-1.417Zm-10.545,3.309v-8.747h5.535v.718h-4.732v3.163h4.293v.718h-4.293v4.148Zm-5.05-8.747v8.747h-.73v-1.069a2.454,2.454,0,0,1-.923.928,2.65,2.65,0,0,1-1.3.311,2.49,2.49,0,0,1-2.019-.89,3.679,3.679,0,0,1-.742-2.429,3.633,3.633,0,0,1,.756-2.429,2.8,2.8,0,0,1,3.344-.58,2.307,2.307,0,0,1,.888.937v-3.526Zm-4.939,5.6a3.077,3.077,0,0,0,.561,1.972,1.885,1.885,0,0,0,1.563.7,1.923,1.923,0,0,0,1.59-.691,3.813,3.813,0,0,0,0-3.964,2.144,2.144,0,0,0-3.159-.006,3.135,3.135,0,0,0-.551,1.987m-6.482-.452,3.954.006a2.62,2.62,0,0,0-.568-1.646,1.729,1.729,0,0,0-1.378-.6,1.809,1.809,0,0,0-1.411.606,2.558,2.558,0,0,0-.6,1.632m-.012.584v.037a2.843,2.843,0,0,0,.558,1.845,1.835,1.835,0,0,0,1.5.685,1.915,1.915,0,0,0,1.241-.4,1.671,1.671,0,0,0,.606-1.1h.73a2.263,2.263,0,0,1-.832,1.539,2.754,2.754,0,0,1-1.792.578,2.491,2.491,0,0,1-2.019-.872,3.668,3.668,0,0,1-.73-2.423,3.754,3.754,0,0,1,.734-2.463,2.5,2.5,0,0,1,2.04-.884,2.442,2.442,0,0,1,1.979.846,3.588,3.588,0,0,1,.71,2.368v.241Zm-7.007,3.017v-8.747h.742v3.419a2.415,2.415,0,0,1,.871-.854,2.451,2.451,0,0,1,1.207-.29,2.593,2.593,0,0,1,1.127.237,1.763,1.763,0,0,1,.76.653,1.646,1.646,0,0,1,.2.551,7.987,7.987,0,0,1,.059,1.188v3.842h-.742v-3.832a2.6,2.6,0,0,0-.338-1.581,1.509,1.509,0,0,0-1.2-.4,1.829,1.829,0,0,0-1.412.568,2.149,2.149,0,0,0-.525,1.523v3.725Zm-1.937-2.177h.73a2.5,2.5,0,0,1-.8,1.711,2.638,2.638,0,0,1-1.823.624,2.5,2.5,0,0,1-2.024-.878,3.6,3.6,0,0,1-.74-2.393,3.719,3.719,0,0,1,.752-2.463,2.542,2.542,0,0,1,2.06-.9,2.577,2.577,0,0,1,1.752.6,2.145,2.145,0,0,1,.74,1.569h-.706a1.67,1.67,0,0,0-.58-1.1,1.946,1.946,0,0,0-2.708.3,3.06,3.06,0,0,0-.556,1.936,3.181,3.181,0,0,0,.562,1.985,1.8,1.8,0,0,0,1.507.73,1.742,1.742,0,0,0,1.231-.456,2.046,2.046,0,0,0,.606-1.259m-6.776-4.136h.73v6.314h-.73Zm0-2.433h.73V150.8h-.73Zm-3.81,8.747v-6.314h.707v1.107a2.065,2.065,0,0,1,.756-.951,2.148,2.148,0,0,1,1.19-.314h.083v.767h-.1a1.752,1.752,0,0,0-1.415.558,2.535,2.535,0,0,0-.472,1.669v3.479Zm-6.557,0v-6.314h.706v1.01a2.314,2.314,0,0,1,2.091-1.168,2.673,2.673,0,0,1,1.145.231,1.718,1.718,0,0,1,.754.659,1.573,1.573,0,0,1,.2.531,6.268,6.268,0,0,1,.059,1.024v4.027h-.754V154.54a2.4,2.4,0,0,0-.341-1.5,1.529,1.529,0,0,0-1.2-.4,1.8,1.8,0,0,0-1.4.562,2.173,2.173,0,0,0-.513,1.529v3.725Zm-7.2,0v-8.747h5.728v.718H83.969v3.187h4.5v.694h-4.5v3.431h5.073v.718Zm-6.233-1.083h.8v1.083h-.8Zm-6.644-.888h.73a1.439,1.439,0,0,0,.5,1.064,1.753,1.753,0,0,0,1.2.407,2.169,2.169,0,0,0,1.245-.312.979.979,0,0,0,.454-.847q0-.766-1.685-1.172l-.03-.006a4.714,4.714,0,0,1-1.814-.718,1.354,1.354,0,0,1-.46-1.091,1.644,1.644,0,0,1,.6-1.32,2.358,2.358,0,0,1,1.571-.507,2.536,2.536,0,0,1,1.693.531,2.019,2.019,0,0,1,.7,1.476h-.742a1.375,1.375,0,0,0-.481-1,1.782,1.782,0,0,0-1.178-.361,1.655,1.655,0,0,0-1.032.3.944.944,0,0,0-.387.785q0,.836,1.723,1.241l.339.085a3.563,3.563,0,0,1,1.5.667,1.45,1.45,0,0,1,.424,1.113,1.569,1.569,0,0,1-.663,1.306,2.8,2.8,0,0,1-1.744.505,2.588,2.588,0,0,1-1.764-.582,2.061,2.061,0,0,1-.7-1.559M63.526,161v-8.856h.742v1.133a2.455,2.455,0,0,1,.9-.975,2.825,2.825,0,0,1,3.356.572,4.318,4.318,0,0,1-.008,4.87,2.589,2.589,0,0,1-2.076.884,2.462,2.462,0,0,1-1.265-.314,2.538,2.538,0,0,1-.9-.949V161Zm.706-5.691a3.074,3.074,0,0,0,.566,1.965,1.884,1.884,0,0,0,1.561.71,1.908,1.908,0,0,0,1.587-.7,3.8,3.8,0,0,0,0-3.96,1.917,1.917,0,0,0-1.585-.7,1.889,1.889,0,0,0-1.574.7,3.116,3.116,0,0,0-.553,1.983m-7.836,0a3.617,3.617,0,0,1,.758-2.454,2.68,2.68,0,0,1,2.135-.87,2.707,2.707,0,0,1,2.148.87,4.314,4.314,0,0,1,0,4.895,3.085,3.085,0,0,1-4.284,0,3.585,3.585,0,0,1-.758-2.443m.754,0a3.073,3.073,0,0,0,.562,1.972,2.139,2.139,0,0,0,3.163.006,3.794,3.794,0,0,0,0-3.96,2.138,2.138,0,0,0-3.163,0,3.079,3.079,0,0,0-.562,1.977m-4.175,3.149v-6.314h.708v1.107a2.062,2.062,0,0,1,.756-.951,2.146,2.146,0,0,1,1.19-.314h.083v.767h-.1a1.752,1.752,0,0,0-1.415.558,2.537,2.537,0,0,0-.472,1.669v3.479ZM50.8,155.6h.79a3.213,3.213,0,0,1-1.024,2.279,3.571,3.571,0,0,1-2.468.823,3.421,3.421,0,0,1-2.786-1.239,5.182,5.182,0,0,1-1.022-3.4,5.057,5.057,0,0,1,1.03-3.362,3.467,3.467,0,0,1,2.8-1.224,3.644,3.644,0,0,1,2.4.758,2.681,2.681,0,0,1,.983,2.027h-.791a2.131,2.131,0,0,0-.8-1.515,2.8,2.8,0,0,0-1.8-.553,2.64,2.64,0,0,0-2.21,1.012,4.534,4.534,0,0,0-.791,2.849,4.627,4.627,0,0,0,.8,2.891,2.957,2.957,0,0,0,4.09.41,2.517,2.517,0,0,0,.787-1.76m-13.236,4.085a2.411,2.411,0,0,1-.661,1.052,1.6,1.6,0,0,1-1.032.312,2.247,2.247,0,0,1-.274-.014,1.657,1.657,0,0,1-.237-.051v-.663c.136.018.241.034.318.044a1.483,1.483,0,0,0,.18.014.9.9,0,0,0,.627-.207,2.306,2.306,0,0,0,.474-.854l.292-.785-2.461-6.391h.783l2.037,5.391,2-5.391h.752Zm-8.54-1.227v-8.747h.742v3.419a2.415,2.415,0,0,1,.871-.854,2.451,2.451,0,0,1,1.207-.29,2.592,2.592,0,0,1,1.127.237,1.76,1.76,0,0,1,.76.653,1.636,1.636,0,0,1,.2.551,7.973,7.973,0,0,1,.059,1.188v3.842h-.742v-3.832a2.6,2.6,0,0,0-.339-1.581,1.508,1.508,0,0,0-1.2-.4,1.83,1.83,0,0,0-1.412.568,2.149,2.149,0,0,0-.525,1.523v3.725Zm-2.336-8.126v1.813h1.168v.6H26.687v4.6a.959.959,0,0,0,.1.535.429.429,0,0,0,.361.132,1.776,1.776,0,0,0,.256-.022c.1-.015.243-.043.444-.087l.006.584a4.141,4.141,0,0,1-.486.1,2.732,2.732,0,0,1-.416.032.942.942,0,0,1-.77-.276,1.636,1.636,0,0,1-.225-1v-4.6H25.1v-.6h.862v-1.813Zm-3.394-.62h.73v8.747h-.73Zm-2.486,7.83a3.363,3.363,0,0,1-1.081.807,2.963,2.963,0,0,1-1.253.267,2.225,2.225,0,0,1-1.525-.5,1.682,1.682,0,0,1-.568-1.33,1.716,1.716,0,0,1,.259-.943,1.77,1.77,0,0,1,.75-.637,6.12,6.12,0,0,1,1.883-.355c.17-.008.3-.018.387-.027l.207-.04q.9-.186.9-.783a1.332,1.332,0,0,0-.365-1.054,1.826,1.826,0,0,0-1.2-.318,2.082,2.082,0,0,0-1.3.353,1.349,1.349,0,0,0-.486,1.048l-.718-.006a1.886,1.886,0,0,1,.7-1.49,2.769,2.769,0,0,1,1.811-.55,2.644,2.644,0,0,1,1.723.487,1.743,1.743,0,0,1,.588,1.423v3.445a.78.78,0,0,0,.1.486.507.507,0,0,0,.355.1c.057,0,.1,0,.144,0s.081-.006.124-.01v.548a2.506,2.506,0,0,1-.274.044,2.226,2.226,0,0,1-.249.016.924.924,0,0,1-.675-.221.877.877,0,0,1-.227-.655Zm-.047-2.392a3.869,3.869,0,0,1-.746.172q-.453.064-1.464.12a2.4,2.4,0,0,0-1.059.521,1.091,1.091,0,0,0-.357.815,1.067,1.067,0,0,0,.383.862,1.582,1.582,0,0,0,1.044.32,2.348,2.348,0,0,0,1.6-.519,1.778,1.778,0,0,0,.6-1.417Zm-10.071-.292,3.954.006a2.62,2.62,0,0,0-.568-1.646,1.731,1.731,0,0,0-1.379-.6,1.81,1.81,0,0,0-1.411.606,2.558,2.558,0,0,0-.6,1.632m-.012.584v.037a2.843,2.843,0,0,0,.558,1.845,1.835,1.835,0,0,0,1.5.685,1.915,1.915,0,0,0,1.241-.4,1.67,1.67,0,0,0,.606-1.1h.73a2.262,2.262,0,0,1-.832,1.539,2.753,2.753,0,0,1-1.792.578,2.489,2.489,0,0,1-2.019-.872,3.665,3.665,0,0,1-.73-2.423,3.754,3.754,0,0,1,.734-2.463,2.5,2.5,0,0,1,2.04-.884,2.443,2.443,0,0,1,1.979.846A3.588,3.588,0,0,1,15.4,155.2v.241Zm-8.834,3.017v-8.747h.8v3.8h5v-3.8h.815v8.747H7.647v-4.234h-5v4.234Z" transform="translate(138.923 -54.327)" fill="#1a1818"/>
    <line id="Line_22" data-name="Line 22" x2="172.654" transform="translate(140.731 87.44)" fill="none" stroke="#1a1818" stroke-miterlimit="2.613" stroke-width="0.961"/>
    <rect id="Rectangle_254" data-name="Rectangle 254" width="181.515" height="73.719" transform="translate(140 33)" fill="none"/>
    <path id="Path_1788" data-name="Path 1788" d="M2.712,0,1.674-1.752H.9V0H.48V-4.194H1.74a1.515,1.515,0,0,1,1.065.336,1.146,1.146,0,0,1,.363.882,1.192,1.192,0,0,1-.261.777,1.249,1.249,0,0,1-.771.417L3.216,0ZM.9-2.094h.846a1.029,1.029,0,0,0,.741-.24.85.85,0,0,0,.249-.642.833.833,0,0,0-.24-.639A1.078,1.078,0,0,0,1.74-3.84H.9Z" transform="translate(315.52 39.194)" fill="#1a1818"/>
  </g>
</svg>
