<?xml version="1.0" encoding="utf-8"?>
<!-- Generator: Adobe Illustrator 24.0.2, SVG Export Plug-In . SVG Version: 6.00 Build 0)  -->
<svg version="1.1" id="Layer_1" xmlns="http://www.w3.org/2000/svg" xmlns:xlink="http://www.w3.org/1999/xlink" x="0px" y="0px"
	 viewBox="0 0 754 202" style="enable-background:new 0 0 754 202;" xml:space="preserve">
<style type="text/css">
	.st0{fill:#0062A9;}
	.st1{fill:#046289;}
	.st2{fill:#808080;}
	.st3{fill:#328642;}
	.st4{fill:#A6388F;}
	.st5{fill:#E43553;}
	.st6{fill:#94C541;}
	.st7{fill:#EF8022;}
	.st8{fill:#FCDF29;}
</style>
<g>
	<g>
		<g>
			<path class="st0" d="M457.6,46.8c-9.2-9.3-22.5-14.9-37.1-14.9c-14.3,0-27.5,5.4-37.2,15.3c-9.7,9.8-15,23.2-15,37.7
				c0,14.6,5.4,28.2,15.1,38.1c9.7,9.9,23,15.4,37.4,15.4c30.1,0,50.4-20.4,50.6-50.8V77.3h-46.4c-6.1,0-11.1,5-11.1,11.2v7.1h38.2
				c-3.1,15-14.6,24.1-31.3,24.1c-19.6,0-33.8-14.7-33.8-35c0-19.5,14.4-34.2,33.5-34.2c6.2,0,11.9,1.4,16.7,4
				c3.9,2.1,8.7,1.6,12.2-1.2L457.6,46.8z"/>
			<path class="st0" d="M80.6,33.4v67.4c0,10.9-3.6,20.3-10.4,27.1c-6.7,6.7-16,10.2-26.7,10.2c-18.1,0-32.2-10.4-37.7-27.9l-1.9-6
				l17.7-5.5l1.8,5.9c3.1,9.9,9.9,15,20.1,15c11.5,0,18.3-7,18.3-18.8V52v-7.3c0-6.2,5-11.2,11.1-11.2H80.6z"/>
			<path class="st0" d="M134.4,136.7h-18.8v-92c0-6.2,5-11.2,11.1-11.2h7.8V136.7z"/>
			<path class="st0" d="M213.3,136.7l41.5-103.2h-12.6c-4.5,0-8.6,2.8-10.3,7l-26.1,65.1l-26.1-65.1c-1.7-4.2-5.8-7-10.3-7h-12.6
				l41.5,103.2H213.3z"/>
			<path class="st0" d="M313.1,33.4l43.1,103.2h-20.5l-11-26.7h-38.8l-11,26.7h-20.5l40.2-96.4c1.7-4.2,5.7-6.8,10.2-6.8H313.1z
				 M293.5,91.4h23.4l-11.7-28.3L293.5,91.4z"/>
			<path class="st0" d="M582,136.7h-22.4l-24.8-37.6h-20.4v37.6h-18.8V33.4H542c21.7,0,33.4,17,33.4,32.9c0,12.1-6.8,25-20.1,30.3
				L582,136.7z M514.4,80.7H542c10.2,0,14.8-7.4,14.8-14.3c0-6.9-4.7-14.4-15-14.4h-27.5V80.7z"/>
		</g>
		<path class="st1" d="M601.6,58.2c-2-0.8-3-3.1-2.2-5.1l0,0c0.8-2,3.1-3,5.1-2.2l0,0c2,0.8,3,3.1,2.2,5.1l0,0
			c-0.6,1.5-2.1,2.5-3.7,2.5l0,0C602.5,58.5,602,58.4,601.6,58.2z"/>
		<path class="st1" d="M730.2,55.3L730.2,55.3c-0.8-2,0.1-4.3,2.2-5.1l0,0c2-0.8,4.3,0.2,5.1,2.2l0,0c0.8,2-0.2,4.3-2.2,5.1l0,0
			c-0.5,0.2-1,0.3-1.5,0.3l0,0C732.3,57.7,730.9,56.8,730.2,55.3z"/>
		<path class="st1" d="M611,39.5c-1.7-1.4-2-3.8-0.6-5.5l0,0c1.4-1.7,3.8-2,5.5-0.6l0,0c1.7,1.4,2,3.8,0.6,5.5l0,0
			c-0.8,1-1.9,1.5-3.1,1.5l0,0C612.6,40.4,611.7,40.1,611,39.5z"/>
		<path class="st1" d="M720.2,38.3L720.2,38.3c-1.4-1.7-1.1-4.2,0.6-5.5l0,0c1.7-1.4,4.2-1.1,5.5,0.6l0,0c1.4,1.7,1.1,4.2-0.6,5.5
			l0,0c-0.7,0.6-1.6,0.9-2.5,0.9l0,0C722.1,39.7,721,39.2,720.2,38.3z"/>
		<path class="st1" d="M625.5,24.4c-1.2-1.8-0.8-4.2,1-5.5l0,0c1.8-1.2,4.2-0.8,5.5,1l0,0c1.2,1.8,0.8,4.2-1,5.5l0,0
			c-0.7,0.5-1.5,0.7-2.2,0.7l0,0C627.5,26.1,626.2,25.5,625.5,24.4z"/>
		<path class="st1" d="M705.6,25L705.6,25c-1.8-1.2-2.3-3.7-1.1-5.5l0,0c1.2-1.8,3.7-2.3,5.5-1.1l0,0l0,0l0,0
			c1.8,1.2,2.3,3.6,1.1,5.5l0,0c-0.8,1.1-2,1.7-3.3,1.7l0,0C707,25.7,706.3,25.4,705.6,25z"/>
		<path class="st1" d="M643.8,14.2c-0.7-2.1,0.5-4.3,2.6-4.9l0,0c2.1-0.6,4.3,0.5,4.9,2.6l0,0c0.7,2.1-0.5,4.3-2.6,4.9l0,0
			c-0.4,0.1-0.8,0.2-1.2,0.2l0,0C645.8,17,644.3,15.9,643.8,14.2z"/>
		<path class="st1" d="M687.7,16.5L687.7,16.5c-2.1-0.6-3.3-2.8-2.6-4.9l0,0c0.6-2.1,2.8-3.3,4.9-2.6l0,0c2.1,0.6,3.3,2.8,2.6,4.9
			l0,0c-0.5,1.7-2.1,2.8-3.8,2.8l0,0C688.5,16.7,688.1,16.7,687.7,16.5z"/>
		<path class="st1" d="M664.2,9.8c0-2.2,1.7-3.9,3.9-4l0,0c2.2,0,3.9,1.7,4,3.9l0,0c0,2.2-1.7,3.9-3.9,4l0,0c0,0,0,0,0,0l0,0
			C666,13.8,664.3,12,664.2,9.8z"/>
		<g>
			<g>
				<path class="st2" d="M739,20.6v1h-2.2v7h-1.3v-7h-2.2v-1H739z"/>
				<path class="st2" d="M750.2,20.7v7.9h-1.3v-5.9l-2.3,5.9h-1.1l-2.3-5.9v5.9h-1.3v-7.9h1.6l2.6,6.3l2.6-6.3H750.2z"/>
			</g>
			<g>
				<path class="st0" d="M722.7,80.6c-5.2,0-9.7,3.7-10.8,8.9c-4.5,21-21.3,35.3-43.2,35.3c-22,0-38.9-14.3-43.4-35.3
					c-1.1-5.2-5.6-8.9-10.8-8.9h-10.9c0.6,17.4,7.1,33.4,18.6,45.3c12.1,12.4,28.5,19.3,46.5,19.3c17.8,0,34.3-6.9,46.3-19.3
					c11.5-11.8,18-27.8,18.6-45.2H722.7z"/>
				<g>
					<path class="st3" d="M713.3,68.7L713.3,68.7C713.3,68.7,713.3,68.7,713.3,68.7L713.3,68.7c0-0.1,0-0.1,0-0.1l0,0
						c-1.1-4,1.3-8.2,5.3-9.2l0,0c4-1.1,8.2,1.3,9.2,5.3l0,0l0,0l0,0c0,0,0,0.1,0,0.1l0,0c0,0,0,0.1,0,0.1l0,0l0,0l0,0
						c1.1,4-1.3,8.2-5.4,9.2l0,0c-0.7,0.2-1.3,0.3-1.9,0.3l0,0C717.3,74.3,714.2,72.1,713.3,68.7z"/>
					<path class="st4" d="M614.7,74c-4-1.1-6.4-5.2-5.3-9.2l0,0c1.1-4,5.2-6.4,9.2-5.3l0,0c4,1.1,6.4,5.2,5.3,9.2l0,0
						c-0.9,3.4-3.9,5.6-7.3,5.6l0,0C616,74.2,615.3,74.2,614.7,74z"/>
					<path class="st5" d="M625.2,47.9c-3-2.9-3-7.7,0-10.7l0,0c2.9-3,7.7-3,10.7,0l0,0c3,2.9,3,7.7,0,10.7h0
						c-1.5,1.5-3.4,2.2-5.3,2.2l0,0C628.6,50.1,626.7,49.4,625.2,47.9z"/>
					<path class="st6" d="M701.3,47.9c-3-2.9-3-7.7,0-10.7l0,0c2.9-3,7.7-3,10.7,0l0,0c2.9,2.9,3,7.7,0,10.7l0,0
						c-1.5,1.5-3.4,2.2-5.4,2.2l0,0C704.7,50.1,702.7,49.3,701.3,47.9z"/>
					<path class="st7" d="M647.4,30.6c-1.1-4,1.3-8.2,5.3-9.2l0,0c4-1.1,8.2,1.3,9.2,5.3l0,0c1.1,4-1.3,8.2-5.3,9.2l0,0
						c-0.7,0.2-1.3,0.2-2,0.2l0,0C651.3,36.2,648.2,34,647.4,30.6z"/>
					<path class="st8" d="M680.5,35.9L680.5,35.9c-4-1.1-6.4-5.2-5.3-9.2l0,0c1.1-4,5.2-6.4,9.2-5.3l0,0c4,1.1,6.4,5.2,5.3,9.2l0,0
						c-0.9,3.4-3.9,5.6-7.3,5.6l0,0C681.8,36.2,681.2,36.1,680.5,35.9z"/>
				</g>
				<g>
					<path class="st0" d="M603,59c-0.6,0-1.1-0.1-1.6-0.3c-2.3-0.9-3.4-3.4-2.5-5.7c0.4-1.1,1.3-2,2.4-2.4c1.1-0.5,2.3-0.5,3.4-0.1
						c2.3,0.9,3.4,3.4,2.5,5.7C606.4,57.9,604.8,59,603,59z"/>
					<path class="st0" d="M733.9,58.2c-1.7,0-3.3-1-4-2.5h0l-0.1-0.2c-0.9-2.2,0.2-4.8,2.4-5.7c2.2-0.9,4.8,0.2,5.7,2.4
						c0.9,2.2-0.2,4.8-2.4,5.7C735,58.1,734.5,58.2,733.9,58.2z"/>
					<path class="st0" d="M613.4,40.9c-1,0-2-0.3-2.7-1c-0.9-0.7-1.5-1.8-1.6-3c-0.1-1.2,0.2-2.3,0.9-3.2c1.5-1.9,4.3-2.2,6.2-0.7
						c1.9,1.5,2.2,4.3,0.7,6.2C616.1,40.3,614.8,40.9,613.4,40.9z"/>
					<path class="st0" d="M723.2,40.2c-1.3,0-2.6-0.6-3.4-1.6l0,0c-1.5-1.9-1.2-4.7,0.6-6.2c0.9-0.7,2.1-1.1,3.2-1
						c1.2,0.1,2.2,0.7,3,1.6c0.7,0.9,1.1,2.1,1,3.2c-0.1,1.2-0.7,2.2-1.6,3C725.2,39.9,724.2,40.2,723.2,40.2z"/>
					<path class="st0" d="M628.7,26.6c-1.5,0-2.8-0.7-3.6-1.9c-0.7-1-0.9-2.1-0.7-3.3c0.2-1.2,0.9-2.2,1.8-2.8
						c2-1.4,4.7-0.9,6.1,1.1c0.7,1,0.9,2.1,0.7,3.3c-0.2,1.2-0.9,2.2-1.8,2.8C630.5,26.3,629.6,26.6,628.7,26.6z"/>
					<path class="st0" d="M707.8,26.1c-0.9,0-1.7-0.3-2.5-0.7l0,0c-1-0.7-1.6-1.7-1.9-2.8c-0.2-1.2,0-2.3,0.7-3.3
						c0.7-1,1.7-1.6,2.8-1.9c1.2-0.2,2.3,0,3.3,0.7c1,0.7,1.6,1.6,1.9,2.8c0.2,1.2,0,2.3-0.7,3.3C710.6,25.4,709.2,26.1,707.8,26.1z
						"/>
					<path class="st0" d="M647.5,17.4c-1.9,0-3.6-1.2-4.2-3.1c-0.4-1.1-0.2-2.3,0.3-3.3c0.5-1,1.5-1.8,2.6-2.2
						c1.1-0.3,2.3-0.2,3.4,0.3c1,0.5,1.8,1.5,2.2,2.6c0.4,1.1,0.2,2.3-0.3,3.4c-0.5,1-1.5,1.8-2.6,2.2
						C648.4,17.4,647.9,17.4,647.5,17.4z"/>
					<path class="st0" d="M688.9,17.2c-0.4,0-0.9-0.1-1.3-0.2c-1.1-0.3-2.1-1.1-2.6-2.1c-0.6-1-0.7-2.2-0.3-3.4
						c0.7-2.3,3.2-3.6,5.5-3c2.3,0.7,3.6,3.2,3,5.5C692.5,15.9,690.8,17.2,688.9,17.2z"/>
					<path class="st0" d="M668.2,14.2c-2.4,0-4.4-2-4.4-4.4l0,0c0-1.2,0.4-2.3,1.3-3.1c0.8-0.8,1.9-1.3,3.1-1.3c0,0,0,0,0,0
						c2.4,0,4.4,2,4.4,4.4c0,1.2-0.4,2.3-1.3,3.1C670.5,13.8,669.4,14.2,668.2,14.2z"/>
				</g>
			</g>
		</g>
	</g>
	<g>
		<path class="st2" d="M266.2,196.3v-7.8h-7.8v7.8h-4.3v-19.3h4.3v7.7h7.8v-7.7h4.3v19.3H266.2z"/>
		<path class="st2" d="M301.1,190.5c-0.5,1.2-1.2,2.3-2.1,3.2c-0.9,0.9-2,1.6-3.3,2.2c-1.3,0.5-2.6,0.8-4.1,0.8
			c-1.5,0-2.9-0.3-4.1-0.8c-1.3-0.5-2.3-1.2-3.2-2.1c-0.9-0.9-1.6-1.9-2.1-3.2c-0.5-1.2-0.8-2.5-0.8-3.9v-0.1c0-1.4,0.3-2.7,0.8-3.9
			c0.5-1.2,1.2-2.3,2.1-3.2c0.9-0.9,2-1.6,3.3-2.2c1.3-0.5,2.6-0.8,4.1-0.8s2.9,0.3,4.1,0.8c1.3,0.5,2.3,1.2,3.2,2.1
			c0.9,0.9,1.6,1.9,2.1,3.2c0.5,1.2,0.8,2.5,0.8,3.9v0.1C301.9,188,301.6,189.3,301.1,190.5z M297.4,186.6c0-0.8-0.1-1.6-0.4-2.4
			c-0.3-0.7-0.7-1.4-1.2-1.9c-0.5-0.6-1.1-1-1.9-1.3c-0.7-0.3-1.5-0.5-2.3-0.5c-0.9,0-1.7,0.2-2.4,0.5c-0.7,0.3-1.3,0.7-1.8,1.3
			c-0.5,0.6-0.9,1.2-1.2,1.9c-0.3,0.7-0.4,1.5-0.4,2.3v0.1c0,0.8,0.1,1.6,0.4,2.3c0.3,0.7,0.7,1.4,1.2,1.9c0.5,0.6,1.1,1,1.9,1.3
			c0.7,0.3,1.5,0.5,2.4,0.5c0.8,0,1.6-0.2,2.3-0.5c0.7-0.3,1.3-0.7,1.8-1.3c0.5-0.6,0.9-1.2,1.2-1.9
			C297.3,188.2,297.4,187.5,297.4,186.6L297.4,186.6z"/>
		<path class="st2" d="M324.5,196.3l-4.1-6.2H317v6.2h-4.3v-19.3h8.8c2.3,0,4.1,0.6,5.4,1.7c1.3,1.1,1.9,2.7,1.9,4.7v0.1
			c0,1.6-0.4,2.8-1.1,3.8c-0.8,1-1.8,1.7-3,2.2l4.7,6.9H324.5z M324.6,183.5c0-0.9-0.3-1.6-0.9-2.1c-0.6-0.5-1.4-0.7-2.5-0.7H317
			v5.6h4.3c1.1,0,1.9-0.2,2.4-0.7C324.3,185.1,324.6,184.4,324.6,183.5L324.6,183.5z"/>
		<path class="st2" d="M348.5,180.8v15.4h-4.3v-15.4h-5.9v-3.9h16v3.9H348.5z"/>
		<path class="st2" d="M365,196.3v-19.3h4.3v19.3H365z"/>
		<path class="st2" d="M396.6,194.6c-0.5,0.4-1.1,0.8-1.8,1.1c-0.6,0.3-1.3,0.5-2.1,0.7c-0.8,0.2-1.6,0.2-2.5,0.2
			c-1.4,0-2.7-0.3-4-0.8c-1.2-0.5-2.3-1.2-3.2-2.1c-0.9-0.9-1.6-1.9-2.1-3.2c-0.5-1.2-0.7-2.5-0.7-3.9v-0.1c0-1.4,0.2-2.7,0.7-3.9
			c0.5-1.2,1.2-2.3,2.1-3.2c0.9-0.9,1.9-1.6,3.2-2.2c1.2-0.5,2.6-0.8,4.1-0.8c0.9,0,1.7,0.1,2.5,0.2c0.7,0.1,1.4,0.4,2,0.6
			c0.6,0.3,1.2,0.6,1.7,0.9c0.5,0.4,1,0.8,1.4,1.2l-2.7,3.1c-0.8-0.7-1.5-1.2-2.3-1.6c-0.8-0.4-1.7-0.6-2.6-0.6
			c-0.8,0-1.6,0.2-2.3,0.5c-0.7,0.3-1.3,0.7-1.8,1.3c-0.5,0.6-0.9,1.2-1.2,1.9c-0.3,0.7-0.4,1.5-0.4,2.3v0.1c0,0.8,0.1,1.6,0.4,2.3
			c0.3,0.7,0.7,1.4,1.1,1.9c0.5,0.6,1.1,1,1.8,1.3c0.7,0.3,1.5,0.5,2.3,0.5c1.1,0,2-0.2,2.8-0.6c0.8-0.4,1.5-1,2.3-1.7l2.7,2.7
			C397.6,193.7,397.1,194.1,396.6,194.6z"/>
		<path class="st2" d="M423,196.3l-1.8-4.3h-8.2l-1.8,4.3H407l8.3-19.5h3.9l8.3,19.5H423z M417.2,181.9l-2.6,6.3h5.1L417.2,181.9z"
			/>
		<path class="st2" d="M449.3,196.3l-4.1-6.2h-3.3v6.2h-4.3v-19.3h8.8c2.3,0,4.1,0.6,5.4,1.7c1.3,1.1,1.9,2.7,1.9,4.7v0.1
			c0,1.6-0.4,2.8-1.1,3.8c-0.8,1-1.8,1.7-3,2.2l4.7,6.9H449.3z M449.4,183.5c0-0.9-0.3-1.6-0.9-2.1c-0.6-0.5-1.4-0.7-2.5-0.7h-4.2
			v5.6h4.3c1.1,0,1.9-0.2,2.4-0.7C449.1,185.1,449.4,184.4,449.4,183.5L449.4,183.5z"/>
		<path class="st2" d="M464.6,196.3v-19.3h14.6v3.8h-10.4v3.9h9.1v3.8h-9.1v4.1h10.5v3.8H464.6z"/>
		<path class="st2" d="M519,193.1c-0.3,0.7-0.8,1.4-1.5,1.9c-0.6,0.5-1.4,0.9-2.2,1.2c-0.9,0.3-1.8,0.4-2.9,0.4
			c-1.5,0-2.9-0.3-4.3-0.8c-1.4-0.5-2.7-1.3-3.9-2.3l2.5-3c0.9,0.7,1.8,1.3,2.7,1.7c0.9,0.4,1.9,0.6,3.1,0.6c0.9,0,1.6-0.2,2.1-0.5
			c0.5-0.3,0.7-0.8,0.7-1.3v-0.1c0-0.3-0.1-0.5-0.2-0.7c-0.1-0.2-0.3-0.4-0.6-0.6c-0.3-0.2-0.7-0.4-1.2-0.6c-0.5-0.2-1.2-0.4-2-0.6
			c-1-0.2-1.9-0.5-2.7-0.8c-0.8-0.3-1.5-0.7-2-1.1c-0.6-0.4-1-1-1.3-1.6c-0.3-0.6-0.5-1.4-0.5-2.4v-0.1c0-0.9,0.2-1.7,0.5-2.4
			c0.3-0.7,0.8-1.3,1.4-1.8c0.6-0.5,1.3-0.9,2.1-1.2c0.8-0.3,1.7-0.4,2.7-0.4c1.4,0,2.7,0.2,3.9,0.6c1.2,0.4,2.3,1,3.3,1.8l-2.2,3.2
			c-0.9-0.6-1.7-1.1-2.5-1.4c-0.8-0.3-1.7-0.5-2.5-0.5c-0.8,0-1.5,0.2-1.9,0.5c-0.4,0.3-0.6,0.7-0.6,1.2v0.1c0,0.3,0.1,0.6,0.2,0.8
			c0.1,0.2,0.3,0.4,0.7,0.6c0.3,0.2,0.7,0.4,1.3,0.5c0.5,0.2,1.2,0.4,2.1,0.6c1,0.3,1.9,0.5,2.6,0.9c0.8,0.3,1.4,0.7,1.9,1.2
			c0.5,0.5,0.9,1,1.2,1.6c0.3,0.6,0.4,1.3,0.4,2.2v0.1C519.5,191.5,519.4,192.3,519,193.1z"/>
		<path class="st2" d="M545,186.6c-0.4,0.8-1,1.6-1.7,2.1c-0.7,0.6-1.5,1-2.5,1.3s-2,0.4-3.1,0.4h-3.2v5.8h-4.3v-19.3h7.9
			c1.2,0,2.2,0.2,3.1,0.5c0.9,0.3,1.7,0.8,2.3,1.4c0.6,0.6,1.1,1.3,1.5,2.1c0.3,0.8,0.5,1.7,0.5,2.7v0.1
			C545.6,184.8,545.4,185.8,545,186.6z M541.3,183.7c0-1-0.3-1.7-0.9-2.2c-0.6-0.5-1.5-0.7-2.5-0.7h-3.3v5.9h3.4
			c1.1,0,1.9-0.3,2.5-0.8C541,185.3,541.3,184.6,541.3,183.7L541.3,183.7z"/>
		<path class="st2" d="M555.9,196.3v-19.3h14.6v3.8h-10.4v3.9h9.1v3.8h-9.1v4.1h10.5v3.8H555.9z"/>
		<path class="st2" d="M596.9,194.6c-0.5,0.4-1.1,0.8-1.8,1.1c-0.6,0.3-1.3,0.5-2.1,0.7c-0.8,0.2-1.6,0.2-2.5,0.2
			c-1.4,0-2.7-0.3-4-0.8c-1.2-0.5-2.3-1.2-3.2-2.1c-0.9-0.9-1.6-1.9-2.1-3.2c-0.5-1.2-0.7-2.5-0.7-3.9v-0.1c0-1.4,0.2-2.7,0.7-3.9
			c0.5-1.2,1.2-2.3,2.1-3.2c0.9-0.9,1.9-1.6,3.2-2.2c1.2-0.5,2.6-0.8,4.1-0.8c0.9,0,1.7,0.1,2.5,0.2c0.7,0.1,1.4,0.4,2,0.6
			c0.6,0.3,1.2,0.6,1.7,0.9c0.5,0.4,1,0.8,1.4,1.2l-2.7,3.1c-0.8-0.7-1.5-1.2-2.3-1.6c-0.8-0.4-1.7-0.6-2.6-0.6
			c-0.8,0-1.6,0.2-2.3,0.5c-0.7,0.3-1.3,0.7-1.8,1.3c-0.5,0.6-0.9,1.2-1.2,1.9c-0.3,0.7-0.4,1.5-0.4,2.3v0.1c0,0.8,0.1,1.6,0.4,2.3
			c0.3,0.7,0.7,1.4,1.1,1.9c0.5,0.6,1.1,1,1.8,1.3c0.7,0.3,1.5,0.5,2.3,0.5c1.1,0,2-0.2,2.8-0.6c0.8-0.4,1.5-1,2.3-1.7l2.7,2.7
			C598,193.7,597.4,194.1,596.9,194.6z"/>
		<path class="st2" d="M609.1,196.3v-19.3h4.3v19.3H609.1z"/>
		<path class="st2" d="M639.7,196.3l-1.8-4.3h-8.2l-1.8,4.3h-4.3l8.3-19.5h3.9l8.3,19.5H639.7z M633.8,181.9l-2.6,6.3h5.1
			L633.8,181.9z"/>
		<path class="st2" d="M654.2,196.3v-19.3h4.3v15.5h9.6v3.8H654.2z"/>
		<path class="st2" d="M678.6,196.3v-19.3h4.3v19.3H678.6z"/>
		<path class="st2" d="M708.2,193.1c-0.3,0.7-0.8,1.4-1.5,1.9c-0.6,0.5-1.4,0.9-2.2,1.2c-0.9,0.3-1.8,0.4-2.9,0.4
			c-1.5,0-2.9-0.3-4.3-0.8c-1.4-0.5-2.7-1.3-3.9-2.3l2.5-3c0.9,0.7,1.8,1.3,2.7,1.7c0.9,0.4,1.9,0.6,3.1,0.6c0.9,0,1.6-0.2,2.1-0.5
			c0.5-0.3,0.7-0.8,0.7-1.3v-0.1c0-0.3-0.1-0.5-0.2-0.7c-0.1-0.2-0.3-0.4-0.6-0.6c-0.3-0.2-0.7-0.4-1.2-0.6c-0.5-0.2-1.2-0.4-2-0.6
			c-1-0.2-1.9-0.5-2.7-0.8c-0.8-0.3-1.5-0.7-2-1.1c-0.6-0.4-1-1-1.3-1.6c-0.3-0.6-0.5-1.4-0.5-2.4v-0.1c0-0.9,0.2-1.7,0.5-2.4
			c0.3-0.7,0.8-1.3,1.4-1.8c0.6-0.5,1.3-0.9,2.1-1.2c0.8-0.3,1.7-0.4,2.7-0.4c1.4,0,2.7,0.2,3.9,0.6c1.2,0.4,2.3,1,3.3,1.8l-2.2,3.2
			c-0.9-0.6-1.7-1.1-2.5-1.4c-0.8-0.3-1.7-0.5-2.5-0.5c-0.8,0-1.5,0.2-1.9,0.5c-0.4,0.3-0.6,0.7-0.6,1.2v0.1c0,0.3,0.1,0.6,0.2,0.8
			c0.1,0.2,0.3,0.4,0.7,0.6c0.3,0.2,0.7,0.4,1.3,0.5c0.5,0.2,1.2,0.4,2.1,0.6c1,0.3,1.9,0.5,2.6,0.9c0.8,0.3,1.4,0.7,1.9,1.2
			c0.5,0.5,0.9,1,1.2,1.6c0.3,0.6,0.4,1.3,0.4,2.2v0.1C708.7,191.5,708.6,192.3,708.2,193.1z"/>
		<path class="st2" d="M728.3,180.8v15.4H724v-15.4h-5.9v-3.9h16v3.9H728.3z"/>
	</g>
</g>
</svg>
